<svg width="906" height="143" viewBox="0 0 906 143" fill="none" xmlns="http://www.w3.org/2000/svg">
<mask id="path-1-outside-1_537_3070" maskUnits="userSpaceOnUse" x="101.919" y="3.89757" width="19.1128" height="22.8606" fill="black">
<rect fill="white" x="101.919" y="3.89757" width="19.1128" height="22.8606"/>
<path d="M111.54 8.39747C110.671 8.59801 109.923 8.92948 109.296 9.3919C108.675 9.84548 108.185 10.4123 107.828 11.0924C107.476 11.7637 107.262 12.5277 107.188 13.3846C107.113 14.2415 107.191 15.1692 107.421 16.1675C107.726 17.489 108.196 18.591 108.831 19.4733C109.471 20.3467 110.262 20.9548 111.204 21.2973C112.152 21.6382 113.244 21.6661 114.48 21.3811C115.183 21.2186 115.831 21.0087 116.422 20.7513C117.019 20.485 117.591 20.1941 118.138 19.8786L118.506 21.4731C117.982 21.8212 117.415 22.1184 116.806 22.3648C116.199 22.6184 115.461 22.8454 114.591 23.046C112.99 23.4155 111.574 23.3943 110.344 22.9821C109.12 22.5611 108.098 21.8058 107.28 20.7163C106.468 19.6252 105.872 18.2536 105.491 16.6017C105.215 15.4095 105.13 14.2832 105.233 13.223C105.342 12.154 105.633 11.1866 106.106 10.3209C106.587 9.45346 107.25 8.71812 108.094 8.11483C108.943 7.50269 109.975 7.05658 111.189 6.77649C111.986 6.59252 112.773 6.49419 113.549 6.4815C114.325 6.4688 115.046 6.54091 115.71 6.69782L115.335 8.41824C114.779 8.30442 114.181 8.23452 113.539 8.20855C112.903 8.17373 112.237 8.23671 111.54 8.39747Z"/>
</mask>
<path d="M111.54 8.39747C110.671 8.59801 109.923 8.92948 109.296 9.3919C108.675 9.84548 108.185 10.4123 107.828 11.0924C107.476 11.7637 107.262 12.5277 107.188 13.3846C107.113 14.2415 107.191 15.1692 107.421 16.1675C107.726 17.489 108.196 18.591 108.831 19.4733C109.471 20.3467 110.262 20.9548 111.204 21.2973C112.152 21.6382 113.244 21.6661 114.48 21.3811C115.183 21.2186 115.831 21.0087 116.422 20.7513C117.019 20.485 117.591 20.1941 118.138 19.8786L118.506 21.4731C117.982 21.8212 117.415 22.1184 116.806 22.3648C116.199 22.6184 115.461 22.8454 114.591 23.046C112.99 23.4155 111.574 23.3943 110.344 22.9821C109.12 22.5611 108.098 21.8058 107.28 20.7163C106.468 19.6252 105.872 18.2536 105.491 16.6017C105.215 15.4095 105.13 14.2832 105.233 13.223C105.342 12.154 105.633 11.1866 106.106 10.3209C106.587 9.45346 107.25 8.71812 108.094 8.11483C108.943 7.50269 109.975 7.05658 111.189 6.77649C111.986 6.59252 112.773 6.49419 113.549 6.4815C114.325 6.4688 115.046 6.54091 115.71 6.69782L115.335 8.41824C114.779 8.30442 114.181 8.23452 113.539 8.20855C112.903 8.17373 112.237 8.23671 111.54 8.39747Z" fill="black"/>
<path d="M109.296 9.3919L109.852 10.154L109.856 10.1513L109.296 9.3919ZM107.828 11.0924L106.992 10.6535L106.992 10.6543L107.828 11.0924ZM108.831 19.4733L108.065 20.0243L108.07 20.0311L108.831 19.4733ZM111.204 21.2973L110.881 22.1839L110.885 22.1852L111.204 21.2973ZM116.422 20.7513L116.799 21.6163L116.807 21.6128L116.422 20.7513ZM118.138 19.8786L119.058 19.6665L118.771 18.4251L117.667 19.0611L118.138 19.8786ZM118.506 21.4731L119.028 22.2594L119.573 21.8981L119.426 21.261L118.506 21.4731ZM116.806 22.3648L116.452 21.4901L116.442 21.4942L116.806 22.3648ZM110.344 22.9821L110.037 23.8743L110.044 23.8767L110.344 22.9821ZM107.28 20.7163L106.523 21.2794L106.525 21.2831L107.28 20.7163ZM105.233 13.223L104.294 13.1274L104.294 13.1315L105.233 13.223ZM106.106 10.3209L105.281 9.86353L105.279 9.86812L106.106 10.3209ZM108.094 8.11483L108.642 8.88245L108.645 8.88036L108.094 8.11483ZM113.549 6.4815L113.565 7.42486L113.549 6.4815ZM115.71 6.69782L116.632 6.89855L116.829 5.99279L115.927 5.77962L115.71 6.69782ZM115.335 8.41824L115.146 9.34254L116.059 9.5295L116.257 8.61897L115.335 8.41824ZM113.539 8.20855L113.488 9.15072L113.501 9.15126L113.539 8.20855ZM111.328 7.47814C110.352 7.7035 109.481 8.0833 108.736 8.63255L109.856 10.1513C110.365 9.77567 110.991 9.49252 111.752 9.3168L111.328 7.47814ZM108.74 8.62977C108.002 9.16821 107.417 9.84553 106.992 10.6535L108.663 11.5314C108.953 10.9791 109.347 10.5227 109.852 10.154L108.74 8.62977ZM106.992 10.6543C106.575 11.4502 106.332 12.3381 106.248 13.3028L108.128 13.4665C108.193 12.7174 108.377 12.0771 108.663 11.5305L106.992 10.6543ZM106.248 13.3028C106.163 14.2749 106.254 15.3029 106.502 16.3796L108.341 15.9553C108.129 15.0355 108.063 14.2082 108.128 13.4665L106.248 13.3028ZM106.502 16.3796C106.829 17.7939 107.342 19.0185 108.065 20.0243L109.597 18.9223C109.051 18.1634 108.624 17.1841 108.341 15.9553L106.502 16.3796ZM108.07 20.0311C108.811 21.0423 109.75 21.7723 110.881 22.1839L111.526 20.4107C110.775 20.1372 110.131 19.6512 109.592 18.9155L108.07 20.0311ZM110.885 22.1852C112.043 22.6014 113.325 22.6157 114.692 22.3004L114.267 20.4617C113.163 20.7165 112.262 20.6751 111.523 20.4094L110.885 22.1852ZM114.692 22.3004C115.445 22.1265 116.149 21.8994 116.799 21.6163L116.045 19.8862C115.513 20.118 114.922 20.3108 114.267 20.4617L114.692 22.3004ZM116.807 21.6128C117.432 21.3338 118.033 21.0283 118.609 20.6961L117.667 19.0611C117.149 19.3599 116.606 19.6361 116.038 19.8897L116.807 21.6128ZM117.219 20.0908L117.587 21.6852L119.426 21.261L119.058 19.6665L117.219 20.0908ZM117.985 20.6868C117.515 20.9984 117.005 21.2665 116.452 21.4902L117.16 23.2394C117.825 22.9702 118.448 22.6439 119.028 22.2594L117.985 20.6868ZM116.442 21.4942C115.898 21.7215 115.214 21.9341 114.379 22.1266L114.804 23.9653C115.708 23.7567 116.499 23.5152 117.169 23.2354L116.442 21.4942ZM114.379 22.1266C112.903 22.4674 111.67 22.4313 110.644 22.0875L110.044 23.8767C111.478 24.3572 113.077 24.3637 114.804 23.9653L114.379 22.1266ZM110.651 22.0899C109.615 21.7335 108.746 21.0967 108.034 20.1495L106.525 21.2831C107.451 22.515 108.625 23.3886 110.037 23.8743L110.651 22.0899ZM108.037 20.1533C107.32 19.189 106.769 17.9449 106.41 16.3896L104.571 16.8138C104.975 18.5623 105.617 20.0613 106.523 21.2794L108.037 20.1533ZM106.41 16.3896C106.154 15.2823 106.08 14.2593 106.172 13.3145L104.294 13.1315C104.179 14.3072 104.277 15.5366 104.571 16.8138L106.41 16.3896ZM106.172 13.3186C106.269 12.3636 106.526 11.5194 106.934 10.7736L105.279 9.86812C104.74 10.8538 104.415 11.9444 104.294 13.1274L106.172 13.3186ZM106.932 10.7782C107.341 10.0392 107.907 9.40804 108.642 8.88245L107.545 7.34721C106.592 8.0282 105.833 8.86773 105.281 9.86353L106.932 10.7782ZM108.645 8.88036C109.376 8.35404 110.287 7.95295 111.401 7.69582L110.977 5.85716C109.664 6.1602 108.511 6.65134 107.542 7.3493L108.645 8.88036ZM111.401 7.69582C112.137 7.52595 112.858 7.43641 113.565 7.42486L113.534 5.53813C112.688 5.55197 111.835 5.6591 110.977 5.85716L111.401 7.69582ZM113.565 7.42486C114.273 7.41327 114.914 7.47937 115.493 7.61603L115.927 5.77962C115.177 5.60245 114.378 5.52433 113.534 5.53813L113.565 7.42486ZM114.788 6.49709L114.413 8.21751L116.257 8.61897L116.632 6.89855L114.788 6.49709ZM115.524 7.49393C114.913 7.36869 114.263 7.2936 113.577 7.26583L113.501 9.15126C114.098 9.17545 114.646 9.24015 115.146 9.34254L115.524 7.49393ZM113.591 7.26647C112.856 7.22626 112.101 7.29985 111.328 7.47814L111.752 9.3168C112.373 9.17357 112.95 9.12121 113.488 9.15062L113.591 7.26647Z" fill="black" mask="url(#path-1-outside-1_537_3070)"/>
<path d="M143.446 92.3922L72.6843 142.397L10.4141 95.6944L31.6425 100.412L57.5885 80.5986L76.4582 5.59131H101.932V9.837H96.7432V23.9893H93.441V9.837H87.3083L79.2887 48.0483C79.2887 48.0483 89.1953 47.1048 95.7997 48.9918C102.404 50.8787 108.065 56.5397 108.065 56.5397C110.036 50.4243 112.783 42.8591 112.783 42.8591C112.783 42.8591 117.04 32.6422 120.33 26.348L143.446 92.3922Z" fill="black" stroke="black" stroke-width="0.943488"/>
<path d="M95.3292 50.8785C91.082 49.4632 78.3464 49.935 78.3464 49.935C73.4784 58.2705 72.6163 62.5156 75.0442 69.2765C82.5906 63.6156 98.1582 67.3895 99.1031 77.2961C105.577 74.3659 107.454 70.2025 107.123 58.4264C107.123 58.4264 99.5764 52.2937 95.3292 50.8785Z" fill="white" stroke="black" stroke-width="0.943488"/>
<path d="M63.7344 104.186L76.9432 71.164C83.2308 66.3892 94.3977 69.277 97.6999 77.2966L88.7368 117.395C80.4748 127.018 76.5656 131.277 72.6975 133.906L83.0759 104.186C85.7169 102.16 84.9629 99.4686 83.0759 98.9969C80.2454 98.9969 79.6885 99.9982 79.7737 103.243L69.867 133.906C69.4177 121.947 68.3746 115.395 63.7344 104.186Z" fill="white" stroke="black" stroke-width="0.943488"/>
<path d="M72.2333 5.12L26.0024 4.17651L1 87.2035L29.3046 95.6948L36.8525 73.9946L54.3071 77.7686L72.2333 5.12Z" fill="black" stroke="black" stroke-width="0.943488"/>
<path d="M34.9648 92.8643L39.2105 78.2402L49.1172 81.5424L34.9648 92.8643Z" fill="black" stroke="black" stroke-width="0.943488"/>
<path d="M64.6886 10.7804L29.3078 9.83691L6.66406 84.8442L26.4773 89.0899L33.0817 67.8614L49.5928 71.6354L64.6886 10.7804Z" fill="white"/>
<path d="M250.748 26.3998V39.3256H233.199V92.6326H217.065V39.3256H199.516V26.3998H250.748ZM274.978 48.7604C276.865 45.8671 279.224 43.6027 282.055 41.9673C284.885 40.269 288.03 39.4199 291.489 39.4199V56.497H287.055C283.03 56.497 280.01 57.3776 277.998 59.1388C275.985 60.8371 274.978 63.8562 274.978 68.1963V92.6326H258.845V39.986H274.978V48.7604ZM295.993 66.215C295.993 60.8056 297 56.0567 299.012 51.9683C301.088 47.8798 303.887 44.7349 307.409 42.5334C310.932 40.3319 314.863 39.2312 319.203 39.2312C322.914 39.2312 326.153 39.986 328.921 41.4956C331.751 43.0052 333.921 44.9865 335.431 47.4396V39.986H351.565V92.6326H335.431V85.1791C333.858 87.6321 331.657 89.6135 328.827 91.123C326.059 92.6326 322.82 93.3874 319.109 93.3874C314.831 93.3874 310.932 92.2867 307.409 90.0852C303.887 87.8208 301.088 84.6444 299.012 80.556C297 76.4046 295.993 71.6243 295.993 66.215ZM335.431 66.3093C335.431 62.2838 334.299 59.1074 332.034 56.7801C329.833 54.4528 327.128 53.2892 323.92 53.2892C320.713 53.2892 317.976 54.4528 315.712 56.7801C313.511 59.0445 312.41 62.1894 312.41 66.215C312.41 70.2405 313.511 73.4484 315.712 75.8385C317.976 78.1658 320.713 79.3294 323.92 79.3294C327.128 79.3294 329.833 78.1658 332.034 75.8385C334.299 73.5113 335.431 70.3349 335.431 66.3093ZM395.315 39.4199C401.479 39.4199 406.385 41.4327 410.034 45.4582C413.745 49.4209 415.6 54.8931 415.6 61.8749V92.6326H399.561V64.0449C399.561 60.5226 398.649 57.7865 396.825 55.8366C395.001 53.8867 392.548 52.9118 389.466 52.9118C386.383 52.9118 383.93 53.8867 382.106 55.8366C380.282 57.7865 379.37 60.5226 379.37 64.0449V92.6326H363.237V39.986H379.37V46.9678C381.006 44.6405 383.207 42.8165 385.975 41.4956C388.742 40.1118 391.856 39.4199 395.315 39.4199ZM448.229 93.3874C443.637 93.3874 439.549 92.6012 435.963 91.0287C432.378 89.4562 429.548 87.3176 427.472 84.613C425.396 81.8454 424.233 78.7634 423.981 75.3668H439.926C440.115 77.1909 440.964 78.669 442.473 79.8012C443.983 80.9334 445.838 81.4995 448.04 81.4995C450.053 81.4995 451.594 81.1221 452.663 80.3673C453.795 79.5496 454.361 78.5118 454.361 77.2538C454.361 75.7442 453.575 74.6435 452.003 73.9516C450.43 73.1968 447.883 72.3791 444.36 71.4985C440.586 70.6179 437.441 69.7059 434.925 68.7624C432.409 67.756 430.239 66.215 428.415 64.1393C426.591 62.0007 425.679 59.1388 425.679 55.5536C425.679 52.5344 426.497 49.7983 428.132 47.3452C429.831 44.8292 432.284 42.8479 435.492 41.4012C438.762 39.9545 442.631 39.2312 447.096 39.2312C453.701 39.2312 458.89 40.8666 462.664 44.1373C466.501 47.4081 468.702 51.7481 469.268 57.1575H454.361C454.11 55.3334 453.292 53.8867 451.908 52.8174C450.587 51.7481 448.826 51.2135 446.625 51.2135C444.738 51.2135 443.291 51.5909 442.285 52.3457C441.278 53.0376 440.775 54.0125 440.775 55.2705C440.775 56.7801 441.561 57.9123 443.134 58.6671C444.769 59.4218 447.285 60.1766 450.682 60.9314C454.581 61.9378 457.758 62.9442 460.211 63.9506C462.664 64.8941 464.803 66.4666 466.627 68.668C468.514 70.8066 469.489 73.7 469.551 77.3481C469.551 80.4302 468.671 83.1977 466.91 85.6508C465.211 88.041 462.727 89.928 459.456 91.3117C456.248 92.6955 452.506 93.3874 448.229 93.3874ZM476.686 59.4218C476.686 52.8803 478.101 47.0622 480.932 41.9673C483.762 36.8096 487.693 32.8155 492.725 29.985C497.82 27.0917 503.575 25.645 509.991 25.645C517.853 25.645 524.584 27.7207 530.182 31.872C535.78 36.0233 539.522 41.6843 541.409 48.8548H523.672C522.351 46.0872 520.464 43.9801 518.011 42.5334C515.62 41.0867 512.884 40.3634 509.802 40.3634C504.833 40.3634 500.808 42.0931 497.726 45.5526C494.644 49.012 493.103 53.6351 493.103 59.4218C493.103 65.2086 494.644 69.8317 497.726 73.2911C500.808 76.7506 504.833 78.4803 509.802 78.4803C512.884 78.4803 515.62 77.757 518.011 76.3103C520.464 74.8636 522.351 72.7565 523.672 69.9889H541.409C539.522 77.1594 535.78 82.8204 530.182 86.9717C524.584 91.0601 517.853 93.1044 509.991 93.1044C503.575 93.1044 497.82 91.6891 492.725 88.8587C487.693 85.9653 483.762 81.9712 480.932 76.8764C478.101 71.7815 476.686 65.9634 476.686 59.4218ZM603.275 39.986V92.6326H587.142V85.4621C585.506 87.7894 583.273 89.6764 580.443 91.123C577.675 92.5068 574.593 93.1987 571.197 93.1987C567.171 93.1987 563.617 92.3181 560.535 90.557C557.453 88.7329 555.063 86.1226 553.365 82.726C551.667 79.3294 550.817 75.3353 550.817 70.7437V39.986H566.857V68.5737C566.857 72.096 567.769 74.8322 569.593 76.782C571.417 78.7319 573.87 79.7068 576.952 79.7068C580.097 79.7068 582.582 78.7319 584.406 76.782C586.23 74.8322 587.142 72.096 587.142 68.5737V39.986H603.275ZM630.998 48.7604C632.885 45.8671 635.243 43.6027 638.074 41.9673C640.904 40.269 644.049 39.4199 647.509 39.4199V56.497H643.074C639.049 56.497 636.03 57.3776 634.017 59.1388C632.004 60.8371 630.998 63.8562 630.998 68.1963V92.6326H614.864V39.986H630.998V48.7604ZM652.012 66.215C652.012 60.8056 653.019 56.0567 655.032 51.9683C657.107 47.8798 659.906 44.7349 663.429 42.5334C666.951 40.3319 670.882 39.2312 675.222 39.2312C678.933 39.2312 682.173 39.986 684.94 41.4956C687.771 43.0052 689.941 44.9865 691.45 47.4396V39.986H707.584V92.6326H691.45V85.1791C689.878 87.6321 687.676 89.6135 684.846 91.123C682.078 92.6326 678.839 93.3874 675.128 93.3874C670.851 93.3874 666.951 92.2867 663.429 90.0852C659.906 87.8208 657.107 84.6444 655.032 80.556C653.019 76.4046 652.012 71.6243 652.012 66.215ZM691.45 66.3093C691.45 62.2838 690.318 59.1074 688.054 56.7801C685.852 54.4528 683.148 53.2892 679.94 53.2892C676.732 53.2892 673.996 54.4528 671.731 56.7801C669.53 59.0445 668.429 62.1894 668.429 66.215C668.429 70.2405 669.53 73.4484 671.731 75.8385C673.996 78.1658 676.732 79.3294 679.94 79.3294C683.148 79.3294 685.852 78.1658 688.054 75.8385C690.318 73.5113 691.45 70.3349 691.45 66.3093ZM748.598 78.9521V92.6326H740.39C734.54 92.6326 729.98 91.2174 726.709 88.3869C723.439 85.4936 721.803 80.8076 721.803 74.329V53.3835H715.388V39.986H721.803V27.1546H737.937V39.986H748.504V53.3835H737.937V74.5177C737.937 76.0901 738.314 77.2223 739.069 77.9142C739.824 78.6061 741.082 78.9521 742.843 78.9521H748.598ZM781.55 93.3874C776.392 93.3874 771.737 92.2867 767.586 90.0852C763.498 87.8837 760.258 84.7388 757.868 80.6503C755.541 76.5619 754.377 71.7815 754.377 66.3093C754.377 60.9 755.572 56.1511 757.962 52.0626C760.353 47.9113 763.623 44.7349 767.775 42.5334C771.926 40.3319 776.581 39.2312 781.738 39.2312C786.896 39.2312 791.551 40.3319 795.702 42.5334C799.853 44.7349 803.124 47.9113 805.514 52.0626C807.904 56.1511 809.099 60.9 809.099 66.3093C809.099 71.7186 807.873 76.499 805.42 80.6503C803.03 84.7388 799.728 87.8837 795.513 90.0852C791.362 92.2867 786.707 93.3874 781.55 93.3874ZM781.55 79.4238C784.632 79.4238 787.242 78.2916 789.381 76.0272C791.582 73.7629 792.683 70.5236 792.683 66.3093C792.683 62.0951 791.614 58.8558 789.475 56.5914C787.399 54.327 784.82 53.1948 781.738 53.1948C778.593 53.1948 775.983 54.327 773.907 56.5914C771.832 58.7929 770.794 62.0322 770.794 66.3093C770.794 70.5236 771.8 73.7629 773.813 76.0272C775.889 78.2916 778.468 79.4238 781.55 79.4238ZM833.792 48.7604C835.679 45.8671 838.038 43.6027 840.869 41.9673C843.699 40.269 846.844 39.4199 850.303 39.4199V56.497H845.869C841.843 56.497 838.824 57.3776 836.812 59.1388C834.799 60.8371 833.792 63.8562 833.792 68.1963V92.6326H817.659V39.986H833.792V48.7604ZM879.432 93.3874C874.84 93.3874 870.752 92.6012 867.167 91.0287C863.581 89.4562 860.751 87.3176 858.675 84.613C856.6 81.8454 855.436 78.7634 855.184 75.3668H871.129C871.318 77.1909 872.167 78.669 873.677 79.8012C875.186 80.9334 877.042 81.4995 879.243 81.4995C881.256 81.4995 882.797 81.1221 883.866 80.3673C884.999 79.5496 885.565 78.5118 885.565 77.2538C885.565 75.7442 884.779 74.6435 883.206 73.9516C881.634 73.1968 879.086 72.3791 875.564 71.4985C871.79 70.6179 868.645 69.7059 866.129 68.7624C863.613 67.756 861.443 66.215 859.619 64.1393C857.795 62.0007 856.883 59.1388 856.883 55.5536C856.883 52.5344 857.7 49.7983 859.336 47.3452C861.034 44.8292 863.487 42.8479 866.695 41.4012C869.966 39.9545 873.834 39.2312 878.3 39.2312C884.904 39.2312 890.094 40.8666 893.867 44.1373C897.704 47.4081 899.906 51.7481 900.472 57.1575H885.565C885.313 55.3334 884.495 53.8867 883.112 52.8174C881.791 51.7481 880.03 51.2135 877.828 51.2135C875.941 51.2135 874.495 51.5909 873.488 52.3457C872.482 53.0376 871.979 54.0125 871.979 55.2705C871.979 56.7801 872.765 57.9123 874.337 58.6671C875.973 59.4218 878.489 60.1766 881.885 60.9314C885.785 61.9378 888.961 62.9442 891.414 63.9506C893.867 64.8941 896.006 66.4666 897.83 68.668C899.717 70.8066 900.692 73.7 900.755 77.3481C900.755 80.4302 899.874 83.1977 898.113 85.6508C896.415 88.041 893.93 89.928 890.66 91.3117C887.452 92.6955 883.709 93.3874 879.432 93.3874Z" fill="black"/>
</svg>
